<mxfile host="Electron" agent="Mozilla/5.0 (Windows NT 10.0; Win64; x64) AppleWebKit/537.36 (KHTML, like Gecko) draw.io/24.7.5 Chrome/126.0.6478.183 Electron/31.3.0 Safari/537.36" version="24.7.5">
  <diagram name="第 1 页" id="E_wPz-95Uw8_oFC6WUVE">
    <mxGraphModel dx="1004" dy="746" grid="1" gridSize="10" guides="1" tooltips="1" connect="1" arrows="1" fold="1" page="1" pageScale="1" pageWidth="827" pageHeight="1169" math="0" shadow="0">
      <root>
        <mxCell id="0" />
        <mxCell id="1" parent="0" />
        <mxCell id="n1O8HnVGfgMPQ-ZIbUr7-11" style="edgeStyle=orthogonalEdgeStyle;rounded=0;orthogonalLoop=1;jettySize=auto;html=1;exitX=1;exitY=0.5;exitDx=0;exitDy=0;entryX=0;entryY=0.5;entryDx=0;entryDy=0;" edge="1" parent="1" source="n1O8HnVGfgMPQ-ZIbUr7-1" target="n1O8HnVGfgMPQ-ZIbUr7-2">
          <mxGeometry relative="1" as="geometry" />
        </mxCell>
        <mxCell id="n1O8HnVGfgMPQ-ZIbUr7-1" value="&lt;font style=&quot;font-size: 14px;&quot;&gt;用户浏览新闻界面&lt;/font&gt;" style="rounded=1;whiteSpace=wrap;html=1;" vertex="1" parent="1">
          <mxGeometry x="230" y="240" width="120" height="60" as="geometry" />
        </mxCell>
        <mxCell id="n1O8HnVGfgMPQ-ZIbUr7-12" style="edgeStyle=orthogonalEdgeStyle;rounded=0;orthogonalLoop=1;jettySize=auto;html=1;exitX=1;exitY=0.5;exitDx=0;exitDy=0;entryX=0;entryY=0.5;entryDx=0;entryDy=0;" edge="1" parent="1" source="n1O8HnVGfgMPQ-ZIbUr7-2" target="n1O8HnVGfgMPQ-ZIbUr7-3">
          <mxGeometry relative="1" as="geometry" />
        </mxCell>
        <mxCell id="n1O8HnVGfgMPQ-ZIbUr7-2" value="&lt;font style=&quot;font-size: 14px;&quot;&gt;删除自己的评论&lt;/font&gt;" style="rounded=1;whiteSpace=wrap;html=1;" vertex="1" parent="1">
          <mxGeometry x="410" y="240" width="120" height="60" as="geometry" />
        </mxCell>
        <mxCell id="n1O8HnVGfgMPQ-ZIbUr7-3" value="&lt;font style=&quot;font-size: 14px;&quot;&gt;删除成功&lt;/font&gt;" style="rounded=1;whiteSpace=wrap;html=1;" vertex="1" parent="1">
          <mxGeometry x="580" y="240" width="120" height="60" as="geometry" />
        </mxCell>
        <mxCell id="n1O8HnVGfgMPQ-ZIbUr7-13" style="edgeStyle=orthogonalEdgeStyle;rounded=0;orthogonalLoop=1;jettySize=auto;html=1;exitX=1;exitY=0.5;exitDx=0;exitDy=0;entryX=0;entryY=0.5;entryDx=0;entryDy=0;" edge="1" parent="1" source="n1O8HnVGfgMPQ-ZIbUr7-14" target="n1O8HnVGfgMPQ-ZIbUr7-16">
          <mxGeometry relative="1" as="geometry" />
        </mxCell>
        <mxCell id="n1O8HnVGfgMPQ-ZIbUr7-14" value="&lt;font style=&quot;font-size: 14px;&quot;&gt;管理员浏览新闻界面&lt;/font&gt;" style="rounded=1;whiteSpace=wrap;html=1;" vertex="1" parent="1">
          <mxGeometry x="230" y="340" width="120" height="60" as="geometry" />
        </mxCell>
        <mxCell id="n1O8HnVGfgMPQ-ZIbUr7-15" style="edgeStyle=orthogonalEdgeStyle;rounded=0;orthogonalLoop=1;jettySize=auto;html=1;exitX=1;exitY=0.5;exitDx=0;exitDy=0;entryX=0;entryY=0.5;entryDx=0;entryDy=0;" edge="1" parent="1" source="n1O8HnVGfgMPQ-ZIbUr7-16" target="n1O8HnVGfgMPQ-ZIbUr7-17">
          <mxGeometry relative="1" as="geometry" />
        </mxCell>
        <mxCell id="n1O8HnVGfgMPQ-ZIbUr7-16" value="&lt;font style=&quot;font-size: 14px;&quot;&gt;删除任意的评论&lt;/font&gt;" style="rounded=1;whiteSpace=wrap;html=1;" vertex="1" parent="1">
          <mxGeometry x="410" y="340" width="120" height="60" as="geometry" />
        </mxCell>
        <mxCell id="n1O8HnVGfgMPQ-ZIbUr7-17" value="&lt;font style=&quot;font-size: 14px;&quot;&gt;删除成功&lt;/font&gt;" style="rounded=1;whiteSpace=wrap;html=1;" vertex="1" parent="1">
          <mxGeometry x="580" y="340" width="120" height="60" as="geometry" />
        </mxCell>
      </root>
    </mxGraphModel>
  </diagram>
</mxfile>
